<svg width="24" height="24" viewBox="0 0 24 24" fill="none" xmlns="http://www.w3.org/2000/svg">
<path d="M12.3457 9.83308L10.9951 8.48252L12.3457 7.13196" stroke="white" stroke-width="1.5" stroke-linecap="round" stroke-linejoin="round"/>
<path d="M21.0042 12C21.0042 10.0572 16.9735 8.48254 12.0004 8.48254H11" stroke="white" stroke-width="1.5" stroke-linecap="round" stroke-linejoin="round"/>
<path d="M7.79209 8.89871C4.94591 9.49096 2.99609 10.6524 2.99609 12" stroke="white" stroke-width="1.5" stroke-linecap="round" stroke-linejoin="round"/>
<path d="M11.6553 14.1669L13.0058 15.5175L11.6553 16.868" stroke="white" stroke-width="1.5" stroke-linecap="round" stroke-linejoin="round"/>
<path d="M2.99609 12C2.99609 13.9428 7.02677 15.5175 11.9998 15.5175H13.0053" stroke="white" stroke-width="1.5" stroke-linecap="round" stroke-linejoin="round"/>
<path d="M16.2078 15.1013C19.0539 14.509 21.0038 13.3476 21.0038 12" stroke="white" stroke-width="1.5" stroke-linecap="round" stroke-linejoin="round"/>
<path d="M12.3457 9.83308L10.9951 8.48252L12.3457 7.13196" stroke="white" stroke-width="1.5" stroke-linecap="round" stroke-linejoin="round"/>
<path d="M11.6553 14.1669L13.0058 15.5175L11.6553 16.868" stroke="white" stroke-width="1.5" stroke-linecap="round" stroke-linejoin="round"/>
<path d="M13.0053 15.5175H11.9998C7.02677 15.5175 2.99609 13.9428 2.99609 12C2.99609 10.6524 4.94591 9.49096 7.79209 8.89871" stroke="white" stroke-width="1.5" stroke-linecap="round" stroke-linejoin="round"/>
<path d="M16.2082 15.1013C19.0544 14.5091 21.0042 13.3476 21.0042 12C21.0042 10.0572 16.9735 8.48254 12.0004 8.48254H11" stroke="white" stroke-width="1.5" stroke-linecap="round" stroke-linejoin="round"/>
<circle cx="11.9998" cy="12" r="9.00375" stroke="white" stroke-width="1.5" stroke-linecap="round" stroke-linejoin="round"/>
</svg>
