<svg width="109" height="77" viewBox="0 0 109 77" fill="none" xmlns="http://www.w3.org/2000/svg">
<g clip-path="url(#clip0_59_155)">
<path d="M54.327 70.9481H5.90711V33.7124L30.105 9.51489L51.7168 31.1202H60.2281V31.116L30.117 1.01741V0.992188L30.105 1.0048L30.099 1.0018V1.0072L0 31.1064L0.0528654 76.992L54.3252 76.8491L54.327 70.9481Z" fill="white"/>
<path d="M14.4277 35.0234H20.8148L35.7577 54.4821V35.0234H43.0676V66.3779H36.7495L21.7604 46.897H21.7376V66.3779H14.4277V35.0234Z" fill="white"/>
<path d="M67.6553 54.736C69.4852 53.9515 70.9342 52.7569 72.0029 51.1503C73.071 49.5448 73.6057 47.6883 73.6057 45.5826C73.6057 43.5231 73.1245 41.6942 72.1645 40.096C71.2039 38.4972 69.8618 37.2527 68.1395 36.3614C66.4172 35.4701 64.4653 35.0244 62.2822 35.0244H48.5156V41.5255H61.9831C62.767 41.5255 63.4891 41.7098 64.15 42.0792C64.8108 42.448 65.3334 42.9429 65.7185 43.5657C66.1018 44.1886 66.2946 44.8613 66.2946 45.5832C66.2946 46.3826 66.106 47.101 65.7305 47.7394C65.352 48.3773 64.8342 48.877 64.1734 49.2373C63.512 49.5989 62.7821 49.7791 61.9831 49.7791H58.7895V49.7827H48.5162V66.3788H55.8261V55.8891H60.4848L65.9732 66.3788H74.3428L67.6553 54.7366V54.736Z" fill="white"/>
<path d="M103.608 50.2111H94.5126V55.6035H94.5198V56.6065H99.5793C97.8906 58.3741 95.5141 59.4786 92.881 59.4786C87.7705 59.4786 83.6127 55.3206 83.6127 50.2111C83.6127 45.1011 87.7705 40.9443 92.881 40.9443C96.8952 40.9443 100.321 43.5095 101.607 47.0849L108.054 44.775C105.818 38.5568 99.8622 34.0967 92.8816 34.0967C83.9936 34.0967 76.7637 41.3263 76.7637 50.2117C76.7637 59.0984 83.9942 66.328 92.8816 66.328C96.5317 66.328 99.9001 65.1064 102.604 63.0535V66.328H109V50.2117H103.608V50.2111Z" fill="white"/>
<path d="M63.2084 76.9686C62.1956 76.9686 61.3978 76.6569 60.8145 76.0322L61.3888 75.2376C61.8952 75.7794 62.5164 76.0503 63.2523 76.0503C63.647 76.0503 63.9425 75.971 64.1402 75.8118C64.3372 75.6527 64.4363 75.4647 64.4363 75.2466C64.4363 75.0226 64.3186 74.8448 64.0831 74.7121C63.8476 74.5794 63.5616 74.4749 63.2264 74.3986C62.8906 74.3223 62.5536 74.231 62.2148 74.1247C61.876 74.019 61.5894 73.8394 61.3533 73.5859C61.1178 73.3331 61.0001 73.0058 61.0001 72.6057C61.0001 72.1114 61.1989 71.7006 61.596 71.3739C61.9937 71.0472 62.5104 70.8838 63.1459 70.8838C64.0531 70.8838 64.789 71.1577 65.3543 71.7048L64.7625 72.473C64.315 72.0256 63.7467 71.8021 63.0576 71.8021C62.7512 71.8021 62.5085 71.8682 62.3289 72.0009C62.1493 72.1337 62.0592 72.3114 62.0592 72.5355C62.0592 72.6826 62.1229 72.8063 62.249 72.9067C62.3758 73.007 62.5392 73.0874 62.7392 73.1493C62.9393 73.2112 63.1616 73.2712 63.4061 73.3301C63.6506 73.3889 63.8945 73.461 64.139 73.5463C64.3835 73.6316 64.6057 73.7361 64.8058 73.8598C65.0058 73.9836 65.1692 74.1541 65.296 74.3722C65.4228 74.5902 65.4858 74.849 65.4858 75.1493C65.4858 75.6791 65.2942 76.1151 64.9115 76.4563C64.5288 76.7974 63.9605 76.9686 63.2066 76.9686H63.2084Z" fill="white"/>
<path d="M72.7473 76.8629H68.7109V70.9727H72.7473V71.882H69.7442V73.4099H72.6854V74.3193H69.7442V75.9535H72.7473V76.8629Z" fill="white"/>
<path d="M80.6354 76.8629H79.4429L78.1357 74.664H77.1114V76.8629H76.0781V70.9727H78.6661C79.2434 70.9727 79.7084 71.1432 80.0616 71.485C80.4149 71.8261 80.5915 72.2712 80.5915 72.8183C80.5915 73.3126 80.4557 73.7085 80.1854 74.0064C79.9145 74.3037 79.5847 74.485 79.196 74.5493L80.6354 76.8629ZM78.5243 73.7547C78.8187 73.7547 79.0602 73.6694 79.2488 73.4988C79.4375 73.3283 79.5312 73.1012 79.5312 72.8189C79.5312 72.5367 79.4369 72.3096 79.2488 72.139C79.0602 71.9685 78.8187 71.8832 78.5243 71.8832H77.1114V73.7553H78.5243V73.7547Z" fill="white"/>
<path d="M86.8806 76.8629H85.5914L83.2773 70.9727H84.4518L86.236 75.7415L88.0202 70.9727H89.1953L86.8806 76.8629Z" fill="white"/>
<path d="M93.1426 76.8629H92.1094V70.9727H93.1426V76.8629Z" fill="white"/>
<path d="M99.4938 76.9688C98.6107 76.9688 97.8742 76.6847 97.2854 76.1166C96.6967 75.5484 96.4023 74.8168 96.4023 73.9219C96.4023 73.027 96.6967 72.2954 97.2854 71.7273C97.8742 71.1591 98.6107 70.875 99.4938 70.875C100.519 70.875 101.307 71.3164 101.861 72.1999L100.978 72.6504C100.83 72.397 100.623 72.1909 100.355 72.0324C100.087 71.8732 99.8001 71.7939 99.4938 71.7939C98.911 71.7939 98.4262 71.9939 98.0406 72.3945C97.6549 72.7946 97.4621 73.3039 97.4621 73.9225C97.4621 74.5405 97.6549 75.0499 98.0406 75.4505C98.4262 75.8511 98.9104 76.0511 99.4938 76.0511C99.8056 76.0511 100.095 75.9718 100.359 75.8126C100.624 75.6535 100.83 75.4475 100.978 75.1946L101.861 75.6451C101.295 76.528 100.507 76.97 99.4938 76.97V76.9688Z" fill="white"/>
<path d="M108.999 76.8629H104.963V70.9727H108.999V71.882H105.996V73.4099H108.937V74.3193H105.996V75.9535H108.999V76.8629Z" fill="white"/>
</g>
<defs>
<clipPath id="clip0_59_155">
<rect width="109" height="76" fill="white" transform="translate(0 0.992188)"/>
</clipPath>
</defs>
</svg>
