<svg width="32" height="33" viewBox="0 0 32 33" fill="none" xmlns="http://www.w3.org/2000/svg">
<path d="M15.9993 2.47656C13.0829 2.48002 10.2871 3.64006 8.22491 5.70221C6.16276 7.76436 5.00273 10.5602 4.99927 13.4766C4.99927 22.8887 14.9993 29.998 15.425 30.2959C15.5934 30.4135 15.7939 30.4766 15.9993 30.4766C16.2047 30.4766 16.4051 30.4135 16.5735 30.2959C16.9993 29.998 26.9993 22.8887 26.9993 13.4766C26.9958 10.5602 25.8358 7.76436 23.7736 5.70221C21.7115 3.64006 18.9156 2.48002 15.9993 2.47656ZM16 9.47692C16.7911 9.47692 17.5645 9.71152 18.2223 10.151C18.8801 10.5906 19.3928 11.2153 19.6955 11.9462C19.9983 12.6771 20.0775 13.4814 19.9231 14.2573C19.7688 15.0332 19.3878 15.7459 18.8284 16.3054C18.269 16.8648 17.5563 17.2457 16.7804 17.4001C16.0044 17.5544 15.2002 17.4752 14.4693 17.1724C13.7384 16.8697 13.1136 16.357 12.6741 15.6992C12.2346 15.0414 12 14.2681 12 13.4769C12 12.9516 12.1034 12.4315 12.3045 11.9462C12.5055 11.4609 12.8001 11.0199 13.1715 10.6485C13.543 10.277 13.9839 9.98239 14.4692 9.78138C14.9546 9.58036 15.4747 9.47691 16 9.47692Z" fill="#16377C"/>
</svg>
