<svg width="32" height="32" viewBox="0 0 32 32" fill="none" xmlns="http://www.w3.org/2000/svg">
<path d="M27.7465 19.8033L21.8917 17.2942C21.586 17.1626 21.2523 17.1096 20.9209 17.1401C20.5895 17.1705 20.271 17.2834 19.9944 17.4685L16.864 19.5552C14.9508 18.6247 13.4023 17.083 12.4634 15.174L12.4636 15.1737L14.543 11.9965C14.724 11.7206 14.8338 11.4042 14.8626 11.0756C14.8914 10.7469 14.8383 10.4163 14.708 10.1132L12.1965 4.25342C12.0256 3.85566 11.7304 3.52398 11.3551 3.30803C10.9799 3.09209 10.5448 3.00351 10.115 3.05554C8.42607 3.27269 6.87398 4.09728 5.74865 5.37525C4.62331 6.65323 4.00173 8.29718 4 10C4 19.9253 12.0747 28 22 28C23.7028 27.9983 25.3468 27.3767 26.6248 26.2513C27.9028 25.126 28.7273 23.5738 28.9445 21.8849C28.9964 21.4551 28.9077 21.02 28.6917 20.6448C28.4758 20.2696 28.1442 19.9744 27.7465 19.8033Z" fill="#16377C"/>
<path d="M19.669 5.96647C21.1946 6.37669 22.5856 7.18061 23.7027 8.29771C24.8198 9.4148 25.6237 10.8058 26.0339 12.3315C26.1029 12.5872 26.2704 12.8051 26.4998 12.9374C26.7292 13.0698 27.0018 13.1057 27.2576 13.0373C27.5135 12.9689 27.7318 12.8018 27.8646 12.5727C27.9974 12.3436 28.0339 12.0711 27.9661 11.8151C27.4646 9.95014 26.4818 8.2497 25.1163 6.88413C23.7507 5.51856 22.0503 4.53581 20.1853 4.03434C19.9293 3.9665 19.6568 4.00299 19.4277 4.13581C19.1986 4.26862 19.0315 4.48691 18.9631 4.74277C18.8947 4.99863 18.9306 5.27117 19.063 5.50058C19.1953 5.73 19.4132 5.89754 19.6689 5.96646L19.669 5.96647Z" fill="#16377C"/>
<path d="M18.6336 9.83073C19.4811 10.0586 20.2538 10.5052 20.8744 11.1258C21.4949 11.7464 21.9415 12.5191 22.1694 13.3666C22.2384 13.6223 22.4059 13.8403 22.6353 13.9726C22.8647 14.1049 23.1373 14.1408 23.3931 14.0725C23.649 14.0041 23.8673 13.837 24.0001 13.6079C24.1329 13.3787 24.1694 13.1063 24.1016 12.8503C23.7824 11.6634 23.157 10.5812 22.288 9.71218C21.4189 8.84313 20.3368 8.21772 19.1499 7.8986C18.8939 7.83076 18.6214 7.86725 18.3923 8.00006C18.1632 8.13288 17.9961 8.35116 17.9277 8.60703C17.8593 8.86289 17.8952 9.13543 18.0276 9.36484C18.1599 9.59425 18.3778 9.7618 18.6335 9.83072L18.6336 9.83073Z" fill="#16377C"/>
</svg>
